<svg width="39" height="39" viewBox="0 0 39 39" fill="none" xmlns="http://www.w3.org/2000/svg">
<path d="M18.1875 25.6875L13.3125 20.8125C12.9375 20.4375 12.75 20 12.75 19.5C12.75 19 12.9375 18.5625 13.3125 18.1875L18.2344 13.2656C18.5781 12.9219 19.0075 12.7575 19.5225 12.7725C20.0387 12.7887 20.4688 12.9688 20.8125 13.3125C21.1562 13.6562 21.3281 14.0937 21.3281 14.625C21.3281 15.1562 21.1562 15.5938 20.8125 15.9375L19.125 17.625H25.1719C25.7031 17.625 26.1406 17.8044 26.4844 18.1631C26.8281 18.5231 27 18.9688 27 19.5C27 20.0312 26.82 20.4762 26.46 20.835C26.1012 21.195 25.6562 21.375 25.125 21.375H19.125L20.8594 23.1094C21.2031 23.4531 21.3675 23.8831 21.3525 24.3994C21.3363 24.9144 21.1562 25.3438 20.8125 25.6875C20.4688 26.0312 20.0312 26.2031 19.5 26.2031C18.9688 26.2031 18.5312 26.0312 18.1875 25.6875ZM19.5 38.25C22.0938 38.25 24.5312 37.7575 26.8125 36.7725C29.0937 35.7887 31.0781 34.4531 32.7656 32.7656C34.4531 31.0781 35.7887 29.0938 36.7725 26.8125C37.7575 24.5312 38.25 22.0938 38.25 19.5C38.25 16.9062 37.7575 14.4688 36.7725 12.1875C35.7887 9.90625 34.4531 7.92188 32.7656 6.23438C31.0781 4.54688 29.0937 3.21062 26.8125 2.22562C24.5312 1.24187 22.0938 0.75 19.5 0.75C16.9062 0.75 14.4688 1.24187 12.1875 2.22562C9.90625 3.21062 7.92187 4.54688 6.23438 6.23438C4.54688 7.92188 3.21125 9.90625 2.2275 12.1875C1.2425 14.4688 0.75 16.9062 0.75 19.5C0.75 22.0938 1.2425 24.5312 2.2275 26.8125C3.21125 29.0938 4.54688 31.0781 6.23438 32.7656C7.92187 34.4531 9.90625 35.7887 12.1875 36.7725C14.4688 37.7575 16.9062 38.25 19.5 38.25ZM19.5 34.5C15.3438 34.5 11.8044 33.0394 8.88187 30.1181C5.96062 27.1956 4.5 23.6562 4.5 19.5C4.5 15.3438 5.96062 11.8044 8.88187 8.88188C11.8044 5.96062 15.3438 4.5 19.5 4.5C23.6562 4.5 27.195 5.96062 30.1163 8.88188C33.0388 11.8044 34.5 15.3438 34.5 19.5C34.5 23.6562 33.0388 27.1956 30.1163 30.1181C27.195 33.0394 23.6562 34.5 19.5 34.5Z" fill="#F8E4BE"/>
</svg>