<svg width="234" height="36" viewBox="0 0 234 36" fill="none" xmlns="http://www.w3.org/2000/svg">
<g clip-path="url(#clip0_12_3269)">
<path d="M120.697 27.7184C115.615 27.7184 110.771 25.2628 107.05 20.8055C104.124 17.194 102.138 12.9146 101.268 8.34902C101.223 8.12791 101.228 7.89955 101.281 7.68038C101.335 7.46122 101.437 7.25672 101.579 7.08162C101.722 6.90653 101.901 6.76519 102.105 6.66781C102.308 6.57044 102.531 6.51943 102.756 6.51848H138.63C138.858 6.51235 139.084 6.55866 139.292 6.65383C139.499 6.74899 139.681 6.89048 139.825 7.06736C139.969 7.24425 140.07 7.45181 140.121 7.67402C140.172 7.89624 140.171 8.12718 140.119 8.34902C139.251 12.914 137.267 17.1934 134.344 20.8055C130.579 25.2628 125.735 27.7184 120.697 27.7184Z" fill="white"/>
<path d="M145.32 1.2428C144.966 0.853284 144.536 0.541633 144.055 0.327683C143.575 0.113734 143.055 0.00217572 142.529 0.00012207H98.7826C98.2568 0.00262969 97.7373 0.114387 97.2569 0.328308C96.7765 0.542228 96.3459 0.853642 95.9922 1.2428C95.1838 2.12788 94.7446 3.28862 94.7644 4.48715C92.6438 4.86169 90.7142 5.94818 89.2943 7.56726C87.8744 9.18635 87.0491 11.2412 86.9546 13.3926C86.86 15.544 87.502 17.6634 88.7744 19.4007C90.0468 21.1381 91.8737 22.3896 93.9533 22.9487C94.9372 23.2367 95.9568 23.3845 96.9819 23.3877C98.2497 23.376 99.5068 23.1547 100.702 22.7329C101.347 23.6867 102.045 24.6034 102.793 25.4787C105.278 28.4217 108.393 30.7667 111.909 32.3395H105.524C105.053 32.3395 104.6 32.5268 104.267 32.8604C103.933 33.1939 103.746 33.6462 103.746 34.1179C103.746 34.5896 103.933 35.0419 104.267 35.3755C104.6 35.709 105.053 35.8964 105.524 35.8964H135.81C136.282 35.8964 136.734 35.709 137.068 35.3755C137.401 35.0419 137.588 34.5896 137.588 34.1179C137.588 33.6462 137.401 33.1939 137.068 32.8604C136.734 32.5268 136.282 32.3395 135.81 32.3395H129.336C132.848 30.7645 135.961 28.4197 138.444 25.4787C143.139 20.0318 145.997 12.6799 146.503 4.77736C146.558 4.13861 146.481 3.49539 146.278 2.88744C146.074 2.27949 145.748 1.71974 145.32 1.2428ZM94.8835 19.5183C93.606 19.1769 92.48 18.4169 91.6857 17.3598C90.8913 16.3027 90.4745 15.0098 90.502 13.6878C90.5294 12.3658 90.9995 11.0912 91.837 10.068C92.6745 9.04482 93.8311 8.33214 95.1216 8.04403C95.7081 12.072 96.9657 15.9732 98.8422 19.5853C97.5408 19.9209 96.1728 19.8977 94.8835 19.5183ZM120.697 29.7276C109.535 29.7276 100.152 18.6403 99.244 4.49459H142.142C141.577 18.164 131.777 29.7276 120.697 29.7276Z" fill="#4E3D33"/>
<path d="M102.92 13.9299C103.923 16.4183 105.304 18.7374 107.013 20.8056C110.733 25.2703 115.577 27.7184 120.66 27.7184C125.742 27.7184 130.579 25.2628 134.307 20.8056C136.011 18.7352 137.389 16.4166 138.392 13.9299H102.92Z" fill="#4E3D33"/>
<path opacity="0.8" d="M207.193 27.7184C202.118 27.7184 197.274 25.2628 193.553 20.8055C190.625 17.1958 188.638 12.9157 187.772 8.34902C187.719 8.12718 187.718 7.89624 187.769 7.67402C187.82 7.45181 187.921 7.24425 188.065 7.06736C188.209 6.89048 188.391 6.74899 188.599 6.65383C188.806 6.55866 189.032 6.51235 189.26 6.51848H225.134C225.362 6.51235 225.588 6.55866 225.795 6.65383C226.002 6.74899 226.185 6.89048 226.329 7.06736C226.472 7.24425 226.574 7.45181 226.625 7.67402C226.675 7.89624 226.675 8.12718 226.622 8.34902C225.752 12.9146 223.766 17.194 220.84 20.8055C217.12 25.2628 212.275 27.7184 207.193 27.7184Z" fill="white"/>
<path d="M207.193 27.7184C202.118 27.7184 197.274 25.2628 193.553 20.8055C190.625 17.1958 188.638 12.9157 187.772 8.34902C187.719 8.12718 187.718 7.89624 187.769 7.67402C187.82 7.45181 187.921 7.24425 188.065 7.06736C188.209 6.89048 188.391 6.74899 188.599 6.65383C188.806 6.55866 189.032 6.51235 189.26 6.51848H225.134C225.362 6.51235 225.588 6.55866 225.795 6.65383C226.002 6.74899 226.185 6.89048 226.329 7.06736C226.472 7.24425 226.574 7.45181 226.625 7.67402C226.675 7.89624 226.675 8.12718 226.622 8.34902C225.752 12.9146 223.766 17.194 220.84 20.8055C217.12 25.2628 212.275 27.7184 207.193 27.7184Z" fill="white"/>
<path d="M231.861 1.2428C231.507 0.853642 231.076 0.542228 230.596 0.328308C230.116 0.114387 229.596 0.00262969 229.07 0.00012207H185.323C184.798 0.00262969 184.278 0.114387 183.798 0.328308C183.317 0.542228 182.887 0.853642 182.533 1.2428C181.721 2.12585 181.282 3.28796 181.305 4.48715C179.185 4.86169 177.255 5.94818 175.835 7.56726C174.415 9.18635 173.59 11.2412 173.495 13.3926C173.401 15.544 174.043 17.6634 175.315 19.4007C176.588 21.1381 178.414 22.3896 180.494 22.9487C181.478 23.2381 182.497 23.3859 183.523 23.3877C184.803 23.3801 186.073 23.1588 187.28 22.7329C187.923 23.6885 188.621 24.6053 189.371 25.4787C191.855 28.4197 194.967 30.7645 198.479 32.3395H192.132C191.66 32.3395 191.208 32.5268 190.875 32.8604C190.541 33.1939 190.354 33.6462 190.354 34.1179C190.354 34.5896 190.541 35.0419 190.875 35.3755C191.208 35.709 191.66 35.8964 192.132 35.8964H222.425C222.897 35.8964 223.349 35.709 223.683 35.3755C224.016 35.0419 224.204 34.5896 224.204 34.1179C224.204 33.6462 224.016 33.1939 223.683 32.8604C223.349 32.5268 222.897 32.3395 222.425 32.3395H215.944C219.456 30.7645 222.569 28.4197 225.052 25.4787C229.74 20.0318 232.605 12.6799 233.111 4.77736C233.157 4.13389 233.069 3.48786 232.854 2.87967C232.639 2.27148 232.301 1.71423 231.861 1.2428ZM181.424 19.5183C180.147 19.1769 179.021 18.4169 178.226 17.3598C177.432 16.3027 177.015 15.0098 177.043 13.6878C177.07 12.3658 177.54 11.0912 178.378 10.068C179.215 9.04482 180.372 8.33214 181.662 8.04403C182.245 12.0728 183.503 15.9745 185.383 19.5853C184.082 19.9209 182.714 19.8977 181.424 19.5183ZM207.193 29.7276C196.076 29.7276 186.655 18.6403 185.748 4.49459H228.646C228.118 18.164 218.318 29.7276 207.193 29.7276Z" fill="#4E3D33"/>
<path d="M191.499 17.9481C192.116 18.9479 192.802 19.9027 193.553 20.8055C197.274 25.2702 202.118 27.7184 207.193 27.7184C212.268 27.7184 217.119 25.2628 220.84 20.8055C221.591 19.9027 222.278 18.9479 222.894 17.9481H191.499Z" fill="#4E3D33"/>
<path d="M191.5 17.9482H222.894C224.287 15.6728 225.354 13.213 226.064 10.641H188.33C189.039 13.213 190.106 15.6728 191.5 17.9482Z" fill="#FFE6CF"/>
<path d="M58.7864 1.2428C58.4327 0.853642 58.002 0.542228 57.5217 0.328308C57.0413 0.114387 56.5217 0.00262969 55.9959 0.00012207H12.2418C11.716 0.00262969 11.1964 0.114387 10.716 0.328308C10.2357 0.542228 9.805 0.853642 9.45136 1.2428C8.64501 2.12862 8.20834 3.2895 8.23099 4.48715C6.11002 4.86069 4.17985 5.94636 2.75916 7.56491C1.33847 9.18346 0.512217 11.2381 0.416826 13.3896C0.321435 15.5411 0.9626 17.6608 2.23447 19.3988C3.50635 21.1367 5.33289 22.3889 7.41248 22.9487C8.39877 23.2372 9.42085 23.385 10.4485 23.3877C11.7163 23.3767 12.9736 23.1554 14.1691 22.7329C14.8139 23.6867 15.512 24.6034 16.26 25.4787C18.7458 28.42 21.8611 30.7648 25.3755 32.3395H18.991C18.5193 32.3395 18.0669 32.5268 17.7334 32.8604C17.3999 33.1939 17.2125 33.6462 17.2125 34.1179C17.2125 34.5896 17.3999 35.0419 17.7334 35.3755C18.0669 35.709 18.5193 35.8964 18.991 35.8964H49.284C49.7556 35.8964 50.208 35.709 50.5415 35.3755C50.875 35.0419 51.0624 34.5896 51.0624 34.1179C51.0624 33.6462 50.875 33.1939 50.5415 32.8604C50.208 32.5268 49.7556 32.3395 49.284 32.3395H42.8027C46.3159 30.7665 49.4292 28.4214 51.9107 25.4787C56.6061 20.0318 59.4709 12.6799 59.9769 4.77736C60.0274 4.13834 59.9479 3.49573 59.7433 2.88827C59.5387 2.2808 59.2131 1.72106 58.7864 1.2428ZM8.33518 19.5183C7.06301 19.1706 5.94353 18.4077 5.15456 17.3509C4.36559 16.2941 3.95239 15.0039 3.98061 13.6854C4.00883 12.3668 4.47684 11.0955 5.31029 10.0734C6.14375 9.05131 7.29484 8.33703 8.58073 8.04403C9.16348 12.0729 10.4213 15.9746 12.3013 19.5853C10.9976 19.9222 9.62682 19.8991 8.33518 19.5183ZM34.1114 29.7276C22.9943 29.7276 13.5738 18.6403 12.666 4.49459H55.5569C55.036 18.164 45.236 29.7276 34.1189 29.7276H34.1114Z" fill="#4E3D33"/>
<path d="M18.4179 17.9481C19.0342 18.9479 19.7205 19.9027 20.4717 20.8055C24.1923 25.2702 29.0365 27.7184 34.1188 27.7184C39.2011 27.7184 44.0453 25.2628 47.7659 20.8055C48.5171 19.9027 49.2034 18.9479 49.8197 17.9481H18.4179Z" fill="#4E3D33"/>
</g>
<defs>
<clipPath id="clip0_12_3269">
<rect width="232.678" height="35.8962" fill="white" transform="translate(0.41748)"/>
</clipPath>
</defs>
</svg>
