<svg width="75" height="106" viewBox="0 0 75 106" fill="none" xmlns="http://www.w3.org/2000/svg">
<path d="M74.0292 27.1289V14.2551C74.0312 10.7395 73.3359 7.25842 71.9834 4.01339C71.472 2.81254 70.6159 1.79031 69.5235 1.07596C68.4311 0.361605 67.1514 -0.0128018 65.8462 0.000100154H8.68295C7.3785 -0.013235 6.09947 0.361074 5.00803 1.07556C3.91658 1.79005 3.06187 2.81254 2.55226 4.01339C1.19472 7.2571 0.497058 10.7388 0.500009 14.2551V27.1289C0.500009 27.6473 0.705931 28.1444 1.07248 28.5109C1.43902 28.8775 1.93616 29.0834 2.45453 29.0834H3.71194C3.19074 50.9415 6.37661 76.7086 6.74797 79.6274L1.90075 85.3216C1.01515 86.3641 0.528039 87.6869 0.52607 89.0547V94.99C0.522591 95.9745 0.771574 96.9435 1.24924 97.8045L2.63044 100.28C3.01987 100.976 3.58686 101.556 4.27357 101.961C4.96029 102.366 5.74217 102.582 6.53949 102.587H10.4029V103.499C10.4029 103.931 10.5745 104.345 10.88 104.65C11.1854 104.956 11.5997 105.127 12.0317 105.127H18.1884C18.6204 105.127 19.0347 104.956 19.3402 104.65C19.6456 104.345 19.8172 103.931 19.8172 103.499V102.619H54.7315V103.551C54.7332 103.977 54.9033 104.385 55.2047 104.687C55.5062 104.988 55.9145 105.158 56.3407 105.16H62.5236C62.9498 105.158 63.3581 104.988 63.6596 104.687C63.961 104.385 64.1311 103.977 64.1328 103.551V102.619H67.9897C68.787 102.615 69.5689 102.399 70.2556 101.994C70.9423 101.589 71.5093 101.009 71.8988 100.313L73.2799 97.837C73.7572 96.9756 74.0082 96.0073 74.0096 95.0225V89.0873C74.0072 87.7207 73.5228 86.3987 72.6415 85.3542L67.7877 79.6339C68.1591 76.7152 71.345 50.9676 70.8238 29.0899H72.0812C72.3378 29.0891 72.5918 29.0377 72.8286 28.9387C73.0655 28.8396 73.2804 28.695 73.4613 28.5129C73.6422 28.3308 73.7855 28.1148 73.8829 27.8774C73.9803 27.6399 74.03 27.3856 74.0292 27.1289ZM4.96935 29.0834H12.1359C13.0899 29.1265 13.9936 29.5237 14.6703 30.1975L18.3774 33.9046C18.8538 34.3833 19.4203 34.7628 20.0444 35.0212C20.6684 35.2795 21.3374 35.4115 22.0128 35.4096H52.5034C53.1777 35.411 53.8456 35.2787 54.4685 35.0204C55.0914 34.7621 55.6569 34.3828 56.1323 33.9046L59.8459 30.1975C60.5202 29.5242 61.4217 29.1269 62.3737 29.0834H69.5403C63.6116 59.5088 45.7081 75.7509 16.9571 79.1518H7.97932C7.47114 75.0929 4.50678 50.2248 4.9889 29.0704L4.96935 29.0834Z" fill="#F8E4BE"/>
<path d="M56.6275 57.3589C62.6278 49.4561 66.0287 40.1591 68.0484 30.5298C66.7393 35.4967 65.0401 40.3525 62.9666 45.0519C58.6471 54.603 51.891 62.9488 43.024 68.6169C34.7498 73.9137 25.2899 76.5262 15.6606 78.1029C20.8052 77.6416 25.8881 76.6482 30.8277 75.1385C41.0564 71.8875 50.1124 65.9457 56.6275 57.3589Z" fill="#F8E4BE"/>
<path d="M4.48718 30.1777L12.2076 30.5035L4.48718 30.8292V30.1777Z" fill="#F8E4BE"/>
<path d="M4.60449 32.6729L12.3314 32.9986L4.60449 33.3244V32.6729Z" fill="#F8E4BE"/>
<path d="M4.72852 35.1685L12.4489 35.4942L4.72852 35.82V35.1685Z" fill="#F8E4BE"/>
<path d="M4.85205 37.6638L12.5724 37.9896L4.85205 38.3153V37.6638Z" fill="#F8E4BE"/>
<path d="M4.96936 40.1589L12.6897 40.4847L4.96936 40.8104V40.1589Z" fill="#F8E4BE"/>
<path d="M5.09314 42.6543L12.8135 42.9801L5.09314 43.3058V42.6543Z" fill="#F8E4BE"/>
<path d="M5.21039 45.1494L12.9373 45.4752L5.21039 45.8009V45.1494Z" fill="#F8E4BE"/>
<path d="M5.33423 47.6445L13.0546 47.9703L5.33423 48.296V47.6445Z" fill="#F8E4BE"/>
<path d="M5.45142 50.1401L13.1783 50.4659L5.45142 50.7916V50.1401Z" fill="#F8E4BE"/>
<path d="M5.57526 52.6353L13.2956 52.961L5.57526 53.2868V52.6353Z" fill="#F8E4BE"/>
<path d="M5.6925 55.1306L13.4194 55.4564L5.6925 55.7821V55.1306Z" fill="#F8E4BE"/>
<path d="M5.81628 57.6257L13.5367 57.9515L5.81628 58.2772V57.6257Z" fill="#F8E4BE"/>
<path d="M5.94006 60.1211L13.6604 60.4468L5.94006 60.7726V60.1211Z" fill="#F8E4BE"/>
<path d="M6.05762 62.6167L13.7845 62.9425L6.05762 63.2682V62.6167Z" fill="#F8E4BE"/>
<path d="M6.18115 65.1118L13.9015 65.4376L6.18115 65.7633V65.1118Z" fill="#F8E4BE"/>
<path d="M6.2984 67.6069L14.0253 67.9327L6.2984 68.2584V67.6069Z" fill="#F8E4BE"/>
<path d="M6.42224 70.1023L14.1426 70.428L6.42224 70.7538V70.1023Z" fill="#F8E4BE"/>
<path d="M6.53943 72.5974L14.2663 72.9232L6.53943 73.2489V72.5974Z" fill="#F8E4BE"/>
<path d="M6.66327 75.0925L14.3836 75.4183L6.66327 75.744V75.0925Z" fill="#F8E4BE"/>
<path d="M6.78027 77.5881L14.5072 77.9139L6.78027 78.2396V77.5881Z" fill="#F8E4BE"/>
<path d="M25.4398 35.3964V37.8721C25.4415 38.3019 25.613 38.7135 25.9168 39.0174C26.2207 39.3212 26.6323 39.4927 27.062 39.4944H27.1141L4.23971 40.9864C2.57185 41.2209 1.42519 43.7813 1.83564 46.6805C2.24609 49.5798 3.92047 51.7493 5.58833 51.5082L31.7333 46.4721C32.5301 46.8163 33.3815 47.017 34.2482 47.0649V48.4461C34.2482 48.7053 34.3511 48.9539 34.5344 49.1372C34.7177 49.3204 34.9662 49.4234 35.2254 49.4234H35.5381V50.2117C35.5381 50.2463 35.5519 50.2794 35.5763 50.3038C35.6007 50.3283 35.6339 50.342 35.6684 50.342H38.8608C38.8954 50.342 38.9285 50.3283 38.953 50.3038C38.9774 50.2794 38.9911 50.2463 38.9911 50.2117V49.4234H39.3104C39.5696 49.4234 39.8181 49.3204 40.0014 49.1372C40.1847 48.9539 40.2876 48.7053 40.2876 48.4461V47.0649C42.2253 46.9504 44.0461 46.1003 45.378 44.6884C46.71 43.2765 47.4526 41.4094 47.4542 39.4684H47.4998C47.9301 39.4684 48.3427 39.2974 48.6469 38.9932C48.9512 38.689 49.1221 38.2763 49.1221 37.8461V35.3704L25.4398 35.3964Z" fill="#F8E4BE"/>
<path d="M71.6121 86.8199L66.4 80.5393H8.10312L2.89106 86.8199C2.85928 86.857 2.83647 86.901 2.82437 86.9484C2.81228 86.9957 2.81123 87.0452 2.8213 87.0931C2.83137 87.1409 2.8523 87.1858 2.88247 87.2243C2.91264 87.2628 2.95124 87.2938 2.9953 87.315C4.41559 88.0251 11.1001 90.3836 37.2451 90.3836C63.3901 90.3836 70.0811 88.0251 71.5013 87.315C71.5459 87.2944 71.5851 87.2639 71.616 87.2257C71.6468 87.1875 71.6684 87.1427 71.6791 87.0948C71.6899 87.0469 71.6894 86.9972 71.6778 86.9495C71.6661 86.9018 71.6437 86.8574 71.6121 86.8199Z" fill="#54372B"/>
<path d="M64.7452 81.1191C64.7452 81.1191 65.11 81.4384 65.6052 81.9726C66.1003 82.5069 66.7323 83.2756 67.3251 84.0249C67.918 84.7741 68.4783 85.6145 68.8692 86.2465C69.2601 86.8785 69.5207 87.341 69.5207 87.341C69.5207 87.341 69.1494 87.0218 68.6477 86.4941C68.038 85.8418 67.4618 85.159 66.9212 84.4483C66.3283 83.6665 65.7746 82.8521 65.3837 82.2137C64.9928 81.5752 64.7452 81.1191 64.7452 81.1191Z" fill="#F8E4BE"/>
<path d="M9.78399 81.1191C9.78399 81.1191 9.41915 81.4384 8.924 81.9726C8.42886 82.5069 7.80341 83.2756 7.20402 84.0249C6.60463 84.7741 6.05085 85.6145 5.65995 86.2465C5.43486 86.6004 5.22827 86.9657 5.04102 87.341C5.04102 87.341 5.41238 87.0218 5.90752 86.4941C6.51949 85.842 7.0979 85.1592 7.64053 84.4483C8.18824 83.7297 8.69924 82.9839 9.17158 82.2137C9.56248 81.5947 9.78399 81.1191 9.78399 81.1191Z" fill="#F8E4BE"/>
<path d="M66.0417 87.0934C65.6508 86.3767 65.097 85.4581 64.4976 84.572C63.8982 83.686 63.2532 82.8455 62.745 82.2396C62.2369 81.6337 61.8525 81.2559 61.8525 81.2559C61.8525 81.2559 62.0675 81.7771 62.4519 82.4937C62.8363 83.2104 63.39 84.1355 63.9829 85.0216C64.532 85.8282 65.1212 86.6066 65.7485 87.354C66.0301 87.6938 66.3303 88.0179 66.6476 88.3247C66.6476 88.3247 66.4326 87.81 66.0417 87.0934Z" fill="#F8E4BE"/>
<path d="M61.3378 84.722C60.8036 83.8359 60.2302 82.9824 59.7742 82.3635C59.3181 81.7446 58.9663 81.3667 58.9663 81.3667C59.1119 81.7856 59.2793 82.1967 59.468 82.598C59.858 83.4649 60.2929 84.3108 60.771 85.1324C61.2494 85.9476 61.7736 86.735 62.3411 87.4909C62.5958 87.8363 62.8698 88.1669 63.162 88.4812C63.0119 88.0642 62.8401 87.6554 62.6473 87.2563C62.3476 86.5332 61.8395 85.6145 61.3378 84.722Z" fill="#F8E4BE"/>
<path d="M58.1715 84.9239C57.7555 84.0696 57.2967 83.2368 56.7968 82.4287C56.5748 82.062 56.3334 81.7075 56.0736 81.3667C56.1861 81.8076 56.3209 82.2425 56.4776 82.6697C56.7512 83.4189 57.1291 84.3897 57.6177 85.3279C58.0318 86.1844 58.4929 87.0175 58.9989 87.8231C59.2256 88.1876 59.4714 88.5399 59.7351 88.8786C59.7351 88.8786 59.5983 88.3443 59.3181 87.5756C58.9826 86.6722 58.5999 85.7871 58.1715 84.9239Z" fill="#F8E4BE"/>
<path d="M55.0117 85.0284C54.6208 84.0838 54.1842 83.1717 53.8259 82.5071C53.6276 82.1377 53.4101 81.7789 53.1744 81.4321C53.2556 81.8717 53.36 82.3066 53.4871 82.7351C53.7538 83.6368 54.0669 84.524 54.4253 85.3933C54.7774 86.2523 55.1753 87.0918 55.6176 87.9081C55.8147 88.2803 56.0322 88.6413 56.2691 88.9896C56.1825 88.5608 56.0738 88.1367 55.9433 87.7192C55.6795 86.8068 55.3686 85.9086 55.0117 85.0284Z" fill="#F8E4BE"/>
<path d="M51.8453 85.1649C51.5573 84.3034 51.2246 83.4575 50.8485 82.6306C50.6811 82.254 50.4941 81.8865 50.2882 81.5295C50.3386 81.9525 50.4126 82.3722 50.5097 82.7869C50.9089 84.5795 51.4918 86.3261 52.2492 87.999C52.4204 88.3761 52.6118 88.7436 52.8226 89.1001C52.768 88.6752 52.6919 88.2533 52.5945 87.8361C52.3917 86.9333 52.1416 86.0416 51.8453 85.1649Z" fill="#F8E4BE"/>
<path d="M48.6855 85.2626C48.458 84.3958 48.1862 83.5412 47.8711 82.7022C47.7329 82.3225 47.5741 81.9506 47.3955 81.5881C47.4182 82.0048 47.4617 82.4202 47.5258 82.8325C47.6605 83.7272 47.841 84.6145 48.0666 85.4907C48.2901 86.3565 48.562 87.2092 48.881 88.0446C49.0205 88.4279 49.1837 88.8021 49.3696 89.1652C49.3696 89.1652 49.3696 88.657 49.2328 87.9143C49.095 87.0218 48.9124 86.1368 48.6855 85.2626Z" fill="#F8E4BE"/>
<path d="M45.5518 85.3475C45.3693 84.3963 45.1413 83.4581 44.9002 82.7415C44.7858 82.3546 44.6509 81.974 44.4963 81.6013C44.4963 81.6013 44.4963 82.103 44.5354 82.8392C44.606 83.7265 44.7235 84.6094 44.8872 85.4843C45.0548 86.3646 45.2724 87.2347 45.5387 88.0904C45.6532 88.4772 45.788 88.8578 45.9427 89.2305C45.9517 88.8175 45.9387 88.4042 45.9036 87.9926C45.8189 87.2564 45.6886 86.3313 45.5518 85.3475Z" fill="#F8E4BE"/>
<path d="M41.9229 82.8196C41.8383 82.4274 41.7317 82.0402 41.6036 81.6599C41.5673 82.065 41.5521 82.4716 41.558 82.8782C41.5653 84.6313 41.7596 86.3785 42.1379 88.0903C42.2187 88.4828 42.3232 88.8701 42.4506 89.25C42.4912 88.8452 42.5086 88.4384 42.5027 88.0317C42.4962 87.15 42.444 86.2693 42.3464 85.3931C42.2356 84.4614 42.0792 83.5167 41.9229 82.8196Z" fill="#F8E4BE"/>
<path d="M38.939 82.8521C38.883 82.4554 38.8068 82.0618 38.7109 81.6729C38.7109 81.6729 38.6262 82.155 38.5741 82.8716C38.5118 83.7388 38.4966 84.6088 38.5285 85.4777C38.5676 86.4289 38.6588 87.3801 38.7631 88.0837C38.8189 88.4809 38.8972 88.8746 38.9976 89.2629C39.0655 88.8662 39.1111 88.466 39.1344 88.0641C39.1943 87.1968 39.2073 86.3269 39.1735 85.4581C39.1416 84.5859 39.0633 83.716 38.939 82.8521Z" fill="#F8E4BE"/>
<path d="M35.8185 81.6729C35.7226 82.0618 35.6465 82.4554 35.5905 82.8521C35.4862 83.5622 35.395 84.5134 35.3559 85.4581C35.3253 86.3269 35.3384 87.1967 35.395 88.0641C35.4221 88.4659 35.47 88.8661 35.5384 89.2629C35.6343 88.8739 35.7104 88.4804 35.7664 88.0837C35.8908 87.2198 35.9691 86.3499 36.0009 85.4777C36.0315 84.6089 36.0185 83.7391 35.9618 82.8716C35.9347 82.4698 35.8869 82.0697 35.8185 81.6729Z" fill="#F8E4BE"/>
<path d="M32.6128 82.8197C32.4565 83.5168 32.2936 84.4615 32.1828 85.4258C32.0851 86.302 32.033 87.1827 32.0265 88.0644C32.0265 88.7875 32.0786 89.2827 32.0786 89.2827C32.2066 88.9024 32.3132 88.5152 32.3978 88.123C32.5868 87.2625 32.7303 86.3926 32.8278 85.517C32.9255 84.5658 32.9777 83.6081 32.9777 82.9109C32.9777 82.2138 32.9255 81.6926 32.9255 81.6926C32.8029 82.063 32.6985 82.4391 32.6128 82.8197Z" fill="#F8E4BE"/>
<path d="M29.6354 82.7674C29.1336 84.4667 28.8083 86.2133 28.6647 87.9794C28.6295 88.3911 28.6165 88.8043 28.6256 89.2173C28.7802 88.8446 28.915 88.464 29.0295 88.0771C29.238 87.3865 29.466 86.4484 29.681 85.4711C29.896 84.4939 29.9742 83.5557 30.0263 82.826C30.0614 82.4144 30.0745 82.0012 30.0654 81.5881C30.0654 81.5881 29.8439 82.0768 29.6354 82.7674Z" fill="#F8E4BE"/>
<path d="M25.8502 85.2626C25.6215 86.1367 25.4367 87.0217 25.2964 87.9143C25.1857 88.657 25.1661 89.1652 25.1661 89.1652C25.3487 88.8006 25.5118 88.4265 25.6548 88.0446C25.9714 87.209 26.2411 86.3563 26.4626 85.4907C26.6933 84.6152 26.876 83.7279 27.0099 82.8325C27.0741 82.4202 27.1176 82.0048 27.1402 81.5881C26.9609 81.9511 26.8 82.323 26.6581 82.7022C26.3455 83.5414 26.0758 84.396 25.8502 85.2626Z" fill="#F8E4BE"/>
<path d="M22.6838 85.1649C22.3711 86.1096 22.0974 87.0804 21.9346 87.8231C21.8373 88.2403 21.7612 88.6621 21.7065 89.087C21.9173 88.7306 22.1087 88.363 22.2799 87.986C22.66 87.16 22.9949 86.314 23.2832 85.4516C23.5959 84.5004 23.863 83.5362 24.0259 82.7869C24.1888 82.0377 24.2474 81.5295 24.2474 81.5295C24.2474 81.5295 23.9933 81.953 23.6806 82.6306C23.3046 83.4575 22.9718 84.3034 22.6838 85.1649Z" fill="#F8E4BE"/>
<path d="M19.4915 85.0283C19.1071 85.9665 18.7683 86.9372 18.5468 87.6865C18.3253 88.4357 18.2275 88.9569 18.2275 88.9569C18.4657 88.6095 18.6832 88.2483 18.879 87.8754C19.3265 87.0618 19.7247 86.222 20.0713 85.3606C20.4326 84.4924 20.7458 83.605 21.0095 82.7024C21.231 81.9532 21.3287 81.3994 21.3287 81.3994C21.3287 81.3994 21.0421 81.8164 20.6772 82.4809C20.2377 83.3088 19.842 84.1591 19.4915 85.0283Z" fill="#F8E4BE"/>
<path d="M17.7324 82.4221C17.3219 83.0736 16.8203 83.9792 16.3577 84.9174C15.8951 85.8556 15.4847 86.8198 15.211 87.5756C14.9374 88.3313 14.7941 88.8786 14.7941 88.8786C14.7941 88.8786 15.1198 88.4747 15.5368 87.8231C15.9538 87.1716 16.4554 86.266 16.918 85.3279C17.3416 84.462 17.72 83.5748 18.0516 82.6697C18.3252 81.9205 18.4621 81.3667 18.4621 81.3667C18.2014 81.7061 17.9579 82.0584 17.7324 82.4221Z" fill="#F8E4BE"/>
<path d="M15.5824 81.3667C15.2961 81.6848 15.0264 82.0175 14.7745 82.3635C14.312 82.9824 13.7386 83.8359 13.2109 84.722C12.6832 85.608 12.1946 86.5397 11.8623 87.2563C11.53 87.973 11.3541 88.4812 11.3541 88.4812C11.6463 88.1669 11.9204 87.8363 12.175 87.4909C12.7403 86.7334 13.2644 85.9461 13.7452 85.1324C14.233 84.3108 14.6788 83.4649 15.0808 82.598C15.2694 82.1967 15.4369 81.7856 15.5824 81.3667Z" fill="#F8E4BE"/>
<path d="M12.6767 81.2559C12.6767 81.2559 12.2988 81.6272 11.7906 82.2396C11.2825 82.8521 10.6375 83.6925 10.0381 84.572C9.4387 85.4516 8.8784 86.3767 8.49401 87.0934C8.10962 87.81 7.88159 88.3247 7.88159 88.3247C8.20017 88.0171 8.50245 87.6931 8.78719 87.354C9.41214 86.6064 9.99924 85.8279 10.5463 85.0216C11.1 84.206 11.611 83.3622 12.0773 82.4937C12.2991 82.0921 12.4992 81.6789 12.6767 81.2559Z" fill="#F8E4BE"/>
<path d="M56.3408 104.613L63.6181 103.101V103.518C63.6181 103.808 63.5028 104.087 63.2975 104.292C63.0923 104.497 62.8139 104.613 62.5236 104.613H56.3408Z" fill="#54372B"/>
<path d="M12.0056 104.613L19.283 103.101V103.518C19.283 103.808 19.1676 104.087 18.9624 104.292C18.7571 104.497 18.4787 104.613 18.1884 104.613H12.0056Z" fill="#54372B"/>
<path d="M69.6576 28.9465C69.6576 28.9465 69.6576 29.3505 69.6576 30.0997C69.6576 30.8489 69.7032 31.95 69.7097 33.3572C69.7162 34.7645 69.7097 36.4649 69.7097 38.4194C69.7097 40.374 69.6119 42.5695 69.5077 44.9736C69.4035 47.3777 69.2536 49.9707 69.0647 52.72C68.8757 55.4694 68.6477 58.3621 68.3741 61.3525C68.1004 64.3429 67.7942 67.4376 67.4489 70.5714C67.2665 72.135 67.0841 73.7181 66.9017 75.3013C66.5433 78.2657 66.6671 78.9954 66.0156 79.0279L29.7266 79.1582H13.7061L29.7201 78.9563C74.3614 78.5719 63.0252 78.6696 66.0026 78.65C66.0332 78.6485 66.0621 78.6356 66.0838 78.614C66.1054 78.5923 66.1183 78.5634 66.1199 78.5328C66.2632 77.4382 66.185 78.0637 66.5368 75.2752C66.7323 73.6943 66.9234 72.1198 67.1102 70.5518C67.475 67.4181 67.8008 64.3364 68.0809 61.346C68.3611 58.3556 68.6086 55.4824 68.8171 52.72C69.0256 49.9577 69.1754 47.3777 69.2992 44.9801C69.423 42.5826 69.5142 40.3805 69.5663 38.4325C69.6185 36.4845 69.6445 34.784 69.6771 33.3833C69.7097 31.9826 69.6771 30.875 69.6771 30.1258C69.6771 29.3765 69.6576 28.9465 69.6576 28.9465Z" fill="#54372B"/>
<path d="M7.87505 45.8403C8.12999 47.2942 7.92976 48.7914 7.30173 50.1272C7.91625 49.2926 8.23492 48.277 8.20732 47.241C8.27341 45.9063 8.0512 44.5731 7.55581 43.332C7.21424 42.363 6.57592 41.5263 5.73159 40.9409L4.24615 41.0387C5.9075 40.7715 7.4646 42.9476 7.87505 45.8403Z" fill="#54372B"/>
<path d="M47.4216 39.4944H41.4408L47.4021 39.8853C47.4086 39.755 47.4216 39.6247 47.4216 39.4944Z" fill="#54372B"/>
<path d="M46.4313 40.5042C46.3745 41.3157 46.1549 42.1074 45.7856 42.8323C45.4162 43.5571 44.9047 44.2001 44.2815 44.723C43.6583 45.2458 42.9362 45.6379 42.1582 45.8757C41.3803 46.1135 40.5624 46.1922 39.7534 46.1071C41.3267 45.9073 42.8134 45.2734 44.0468 44.2764C45.1585 43.2497 45.9808 41.9488 46.4313 40.5042Z" fill="#54372B"/>
<path d="M49.0894 35.9894V35.3965H35.1797L49.0894 35.9894Z" fill="#54372B"/>
<path d="M70.5892 5.15991C70.5892 5.15991 70.8107 5.57035 71.156 6.37171C71.6367 7.54277 72.0012 8.75825 72.2441 10.0006C72.4163 10.8856 72.5381 11.7796 72.6089 12.6783C72.6936 13.6621 72.6871 14.7306 72.6936 15.8577C72.6936 18.1184 72.6936 20.6658 72.6936 23.4542C72.6936 24.1448 72.6936 24.855 72.6936 25.5782V26.1254C72.7157 26.344 72.6981 26.5647 72.6415 26.7769C72.5992 26.8945 72.5319 27.0014 72.4441 27.0903C72.3564 27.1792 72.2503 27.2479 72.1333 27.2916C72.0209 27.333 71.9011 27.3507 71.7815 27.3437H71.5013H66.8561H64.4455C63.634 27.3126 62.8213 27.3474 62.0154 27.448C61.2137 27.5913 60.4492 27.8948 59.7677 28.3406C59.4241 28.5698 59.1034 28.8316 58.81 29.1224L57.8848 30.0345L56.015 31.8783L55.0638 32.8164C54.7126 33.1558 54.2895 33.4119 53.8259 33.5657C53.3654 33.7013 52.8849 33.7564 52.4056 33.7285H48.3402L37.2646 33.7611L26.189 33.7285H22.0975C21.6204 33.7564 21.142 33.7013 20.6837 33.5657C20.2178 33.4128 19.7925 33.1566 19.4393 32.8164L18.4947 31.8783L16.6183 30.0345C16.0442 29.413 15.4139 28.846 14.7355 28.3406C14.0563 27.8949 13.2939 27.5912 12.4943 27.448C11.6862 27.3474 10.8713 27.3126 10.0576 27.3437H7.64706H3.00181C2.78326 27.3644 2.56279 27.3467 2.3503 27.2916C2.2333 27.2479 2.12723 27.1792 2.03947 27.0903C1.95171 27.0014 1.88437 26.8945 1.84213 26.7769C1.80359 26.666 1.78592 26.549 1.79 26.4316V25.6107C1.79 24.8876 1.79 24.1774 1.79 23.4868C1.79 20.6984 1.79 18.151 1.79 15.8902C1.79 14.7631 1.79 13.6947 1.86819 12.7109C1.941 11.812 2.06499 10.918 2.23955 10.0332C2.48244 8.79084 2.84686 7.57536 3.32756 6.40429C3.66635 5.60294 3.88786 5.19248 3.88786 5.19248L3.78362 5.51823C3.71195 5.72672 3.60771 6.04596 3.47741 6.46293C3.10385 7.65353 2.80145 8.86531 2.57181 10.0918C2.40741 10.9664 2.29213 11.8495 2.22651 12.737C2.14833 13.7077 2.16136 14.7566 2.16136 15.8902C2.16136 18.151 2.16136 20.6984 2.16136 23.4868C2.16136 24.1774 2.16136 24.8876 2.16136 25.6107V26.3925C2.14964 26.4572 2.14964 26.5234 2.16136 26.588C2.18165 26.6461 2.21516 26.6987 2.25925 26.7417C2.30335 26.7847 2.35682 26.8168 2.41545 26.8356C2.5729 26.8618 2.73361 26.8618 2.89105 26.8356H7.5363H9.95991C10.8016 26.7978 11.645 26.8304 12.4812 26.9333C13.3517 27.0815 14.1829 27.4052 14.9244 27.8845C15.2937 28.1337 15.6404 28.4149 15.9603 28.7249L17.0027 29.6501C17.6542 30.2625 18.2536 30.8684 18.8856 31.4873L19.8368 32.4125C20.1277 32.6938 20.4801 32.9034 20.8662 33.0249C21.2692 33.1455 21.6912 33.1897 22.1105 33.1552H23.4657H26.1955H37.2711H48.3468H51.0701H52.4252C52.8445 33.1905 53.2667 33.1463 53.6696 33.0249C54.0579 32.9044 54.4127 32.6946 54.7055 32.4125L55.6567 31.4873L57.5395 29.6501L58.4712 28.7445C58.7898 28.4329 59.1365 28.1516 59.5071 27.9041C60.2479 27.4234 61.0794 27.0997 61.9502 26.9528C62.7843 26.85 63.6255 26.8173 64.4651 26.8551H66.8887H71.5339C71.6938 26.8779 71.8561 26.8779 72.016 26.8551C72.0732 26.8351 72.1252 26.8024 72.168 26.7596C72.2109 26.7167 72.2436 26.6647 72.2636 26.6075C72.298 26.4537 72.309 26.2956 72.2962 26.1385V25.5912C72.2962 24.868 72.2962 24.1579 72.2962 23.4673C72.2962 20.6788 72.2962 18.1314 72.2962 15.8707C72.2962 14.7371 72.2962 13.6882 72.2375 12.7174C72.1719 11.8299 72.0566 10.9469 71.8922 10.0723C71.661 8.84551 71.3564 7.63369 70.9801 6.44338C70.8498 6.02642 70.7521 5.70717 70.6739 5.49869L70.5892 5.15991Z" fill="#54372B"/>
<path d="M71.8923 97.0224C71.8923 97.0224 71.801 97.296 71.586 97.7912C71.2789 98.5123 70.9219 99.2111 70.5176 99.8825C70.2471 100.262 69.8948 100.577 69.4866 100.802C69.0784 101.028 68.6247 101.159 68.1591 101.186C67.8073 101.186 67.5076 101.186 67.1362 101.186H62.4454C55.5785 101.231 46.4248 101.186 37.2646 101.186C28.1044 101.186 18.9507 101.186 12.0838 101.186H7.39949C7.04767 101.186 6.74798 101.186 6.38313 101.186C6.04279 101.169 5.70783 101.094 5.39284 100.964C4.83875 100.742 4.36111 100.364 4.01816 99.876C3.61227 99.2044 3.2531 98.5056 2.94317 97.7846C2.73469 97.2895 2.63696 97.0159 2.63696 97.0159C2.63696 97.0159 2.81939 97.2374 3.13211 97.6674C3.44483 98.0974 3.8618 98.801 4.35694 99.6219C4.65653 100.041 5.07048 100.364 5.5492 100.554C5.82039 100.658 6.10611 100.719 6.39616 100.736H7.39949H12.0838C18.9507 100.69 28.1109 100.736 37.2646 100.736C46.4183 100.736 55.5785 100.736 62.4454 100.736H67.1362H68.133C68.4232 100.72 68.709 100.659 68.98 100.554C69.4587 100.364 69.8727 100.041 70.1723 99.6219C70.6739 98.801 71.0909 98.0974 71.3971 97.6674C71.7033 97.2374 71.8923 97.0224 71.8923 97.0224Z" fill="#54372B"/>
<path d="M6.55273 1.44639L16.1494 1.29656L25.9872 1.21836L37.2648 1.18579L48.5424 1.21836L58.3867 1.29656L67.9834 1.44639L58.3867 1.58972L48.5424 1.67442L37.2648 1.70699L26.0068 1.6679L16.169 1.58972L6.55273 1.44639Z" fill="#54372B"/>
<path d="M72.2636 88.7483L72.0812 88.8395C71.9074 88.927 71.729 89.0053 71.547 89.074C70.8503 89.3536 70.1365 89.5886 69.41 89.7777C68.4784 90.0253 67.3317 90.2793 66.0092 90.5139C64.6866 90.7484 63.1816 90.9765 61.5333 91.1654C59.885 91.3543 58.0998 91.5237 56.2105 91.6801L53.2982 91.882L50.2557 92.0319C48.1839 92.1101 46.047 92.1882 43.8774 92.2273C41.7079 92.2664 39.4993 92.286 37.2907 92.3055C35.0821 92.3251 32.8865 92.3055 30.7105 92.2273C28.5344 92.1492 26.3975 92.1101 24.3322 92.0319L21.2897 91.882L18.3774 91.6801C16.4815 91.5302 14.6964 91.3543 13.0546 91.1654C11.4128 90.9765 9.9013 90.7549 8.57874 90.5139C7.25618 90.2728 6.10953 90.0253 5.17135 89.7777C4.44813 89.5874 3.73675 89.3546 3.04092 89.0806C2.79987 88.9828 2.61744 88.8981 2.50017 88.8395L2.31775 88.7483L2.50669 88.8265C2.6833 88.9121 2.86627 88.984 3.05395 89.0415C3.75773 89.2884 4.47567 89.4929 5.20393 89.6539C6.1421 89.8689 7.28875 90.0839 8.61783 90.3054C9.94691 90.5269 11.4519 90.6637 13.0937 90.8331C14.7355 91.0025 16.5206 91.1263 18.41 91.2371C20.2994 91.3478 22.319 91.4195 24.3517 91.5042C26.3844 91.5889 28.5475 91.628 30.717 91.654C32.8865 91.6801 35.0951 91.654 37.2907 91.6931C39.4863 91.7322 41.7014 91.6931 43.8644 91.654C46.0274 91.6149 48.1709 91.5693 50.2296 91.5042L53.2722 91.3804L56.1779 91.2371C58.0673 91.1263 59.8524 90.9895 61.4942 90.8331C63.136 90.6768 64.641 90.5009 65.9701 90.3054C67.2991 90.11 68.4458 89.895 69.384 89.6539C70.112 89.492 70.8299 89.2875 71.5339 89.0415C71.7208 88.9817 71.9036 88.9098 72.0812 88.8265L72.2636 88.7483Z" fill="#54372B"/>
<path d="M7.40625 42.1852C7.40625 42.1852 8.93729 41.9702 11.2436 41.7161C12.3903 41.6054 13.7324 41.4425 15.1527 41.3122L19.6676 40.9083L24.1891 40.5695C25.6289 40.4587 26.9841 40.3936 28.1372 40.3219C30.4501 40.1916 31.9942 40.146 31.9942 40.146C31.9942 40.146 30.4631 40.361 28.1633 40.6151C27.0101 40.7324 25.668 40.8887 24.2542 41.019L19.7328 41.423L15.2113 41.7617C13.7715 41.8725 12.4229 41.9377 11.2632 42.0093C8.95032 42.1396 7.40625 42.1852 7.40625 42.1852Z" fill="#54372B"/>
<path d="M43.2845 13.2778C41.892 11.8867 40.0602 11.0215 38.1013 10.8294C36.1423 10.6374 34.1774 11.1304 32.5412 12.2246C30.905 13.3188 29.6988 14.9464 29.128 16.8301C28.5572 18.7139 28.6572 20.7373 29.4109 22.5556C30.1646 24.3739 31.5254 25.8747 33.2614 26.8022C34.9975 27.7298 37.0015 28.0267 38.932 27.6425C40.8624 27.2583 42.6 26.2167 43.8486 24.6951C45.0972 23.1735 45.7797 21.2661 45.7798 19.2978C45.7791 17.0396 44.8816 14.8742 43.2845 13.2778ZM31.7072 13.7404C33.1016 12.3476 34.9681 11.5292 36.9372 11.4471C38.9063 11.3651 40.8344 12.0254 42.3398 13.2974L31.2642 24.373C29.9899 22.8691 29.3275 20.9411 29.4084 18.9716C29.4893 17.002 30.3075 15.1348 31.7007 13.7404H31.7072ZM42.8284 24.8551C41.4329 26.2488 39.5646 27.0672 37.594 27.1481C35.6234 27.2289 33.6943 26.5663 32.1893 25.2916L43.265 14.216C44.5392 15.72 45.2016 17.6479 45.1207 19.6174C45.0399 21.587 44.2217 23.4542 42.8284 24.8486V24.8551Z" fill="#54372B"/>
<path d="M34.4761 20.2814L36.3655 18.4181L38.2288 16.5287L39.8315 14.8609C40.7697 13.8771 41.3756 13.2061 41.3756 13.2061C41.3756 13.2061 40.7241 13.8119 39.7142 14.7436L38.0464 16.3528L36.157 18.2162L34.2937 20.1055L32.691 21.7734C31.7528 22.7572 31.1469 23.4282 31.1469 23.4282C31.1469 23.4282 31.7984 22.8223 32.8083 21.8906L34.4761 20.2814Z" fill="#54372B"/>
<path d="M41.7011 16.7046L40.0333 18.3073L38.1439 20.1706L36.2806 22.06L34.6714 23.7343C33.7397 24.7116 33.1338 25.3892 33.1338 25.3892C33.1338 25.3892 33.7853 24.7833 34.7886 23.8451L36.4304 22.2424L38.3198 20.3791L40.1831 18.4897L41.7923 16.8218C42.724 15.8381 43.3299 15.167 43.3299 15.167C43.3299 15.167 42.6849 15.7729 41.7011 16.7046Z" fill="#54372B"/>
<path d="M47.3108 13.0821C44.8872 9.89624 41.3691 7.79837 37.2776 7.79837C33.1861 7.79837 29.655 9.88972 27.2183 13.0821C28.2094 11.2853 29.6642 9.78716 31.4312 8.74382C33.1981 7.70049 35.2126 7.15015 37.2646 7.15015C39.3166 7.15015 41.331 7.70049 43.098 8.74382C44.865 9.78716 46.3198 11.2853 47.3108 13.0821Z" fill="#54372B"/>
<path d="M67.1297 9.71411H52.158C51.6903 9.71411 51.3111 10.0933 51.3111 10.5611V17.5452C51.3111 18.013 51.6903 18.3922 52.158 18.3922H67.1297C67.5974 18.3922 67.9766 18.013 67.9766 17.5452V10.5611C67.9766 10.0933 67.5974 9.71411 67.1297 9.71411Z" fill="#54372B"/>
<path d="M67.3382 10.5479V17.5581C67.339 17.5834 67.3348 17.6087 67.3257 17.6324C67.3166 17.6561 67.3028 17.6777 67.2852 17.6959C67.2676 17.7141 67.2464 17.7287 67.2231 17.7386C67.1997 17.7485 67.1746 17.7535 67.1492 17.7535H52.1646C59.1422 16.4831 64.6279 14.3266 67.3382 10.5479Z" fill="#F8E4BE"/>
<path d="M53.5849 21.6757C53.5849 21.8873 53.522 22.0941 53.4044 22.27C53.2867 22.4458 53.1194 22.5827 52.9238 22.6634C52.7282 22.7441 52.513 22.7649 52.3056 22.7231C52.0981 22.6813 51.9077 22.5789 51.7586 22.4289C51.6094 22.2788 51.5082 22.0878 51.4677 21.8801C51.4272 21.6724 51.4493 21.4574 51.5312 21.2622C51.613 21.0671 51.751 20.9007 51.9276 20.7841C52.1041 20.6675 52.3113 20.6059 52.5229 20.6072C52.6629 20.6072 52.8016 20.6349 52.9308 20.6887C53.0601 20.7424 53.1775 20.8212 53.2762 20.9205C53.3749 21.0198 53.4529 21.1377 53.5059 21.2673C53.5589 21.3969 53.5857 21.5357 53.5849 21.6757Z" fill="#54372B"/>
<path d="M56.0801 22.7374C56.6666 22.7374 57.1421 22.262 57.1421 21.6755C57.1421 21.089 56.6666 20.6135 56.0801 20.6135C55.4936 20.6135 55.0182 21.089 55.0182 21.6755C55.0182 22.262 55.4936 22.7374 56.0801 22.7374Z" fill="#54372B"/>
<path d="M59.6439 22.7374C60.2304 22.7374 60.7059 22.262 60.7059 21.6755C60.7059 21.089 60.2304 20.6135 59.6439 20.6135C59.0574 20.6135 58.5819 21.089 58.5819 21.6755C58.5819 22.262 59.0574 22.7374 59.6439 22.7374Z" fill="#54372B"/>
<path d="M63.2076 22.7374C63.7941 22.7374 64.2696 22.262 64.2696 21.6755C64.2696 21.089 63.7941 20.6135 63.2076 20.6135C62.6211 20.6135 62.1457 21.089 62.1457 21.6755C62.1457 22.262 62.6211 22.7374 63.2076 22.7374Z" fill="#54372B"/>
<path d="M66.7779 22.7374C67.3644 22.7374 67.8399 22.262 67.8399 21.6755C67.8399 21.089 67.3644 20.6135 66.7779 20.6135C66.1914 20.6135 65.7159 21.089 65.7159 21.6755C65.7159 22.262 66.1914 22.7374 66.7779 22.7374Z" fill="#54372B"/>
<path d="M11.1782 11.1995H14.3315C14.5475 11.1995 14.7546 11.2853 14.9074 11.438C15.0601 11.5907 15.1459 11.7979 15.1459 12.0138V20.4378C15.1459 20.6538 15.0601 20.861 14.9074 21.0137C14.7546 21.1664 14.5475 21.2522 14.3315 21.2522H11.1782C10.9622 21.2522 10.7551 21.1664 10.6024 21.0137C10.4496 20.861 10.3638 20.6538 10.3638 20.4378V12.0138C10.3655 11.7984 10.4519 11.5922 10.6042 11.4399C10.7566 11.2875 10.9628 11.2012 11.1782 11.1995Z" fill="#54372B"/>
<path d="M14.3315 11.8379H11.1782C11.0811 11.8379 11.0023 11.9166 11.0023 12.0138V20.4378C11.0023 20.5349 11.0811 20.6137 11.1782 20.6137H14.3315C14.4287 20.6137 14.5074 20.5349 14.5074 20.4378V12.0138C14.5074 11.9166 14.4287 11.8379 14.3315 11.8379Z" fill="#F8E4BE"/>
<path d="M11.3213 20.2943C12.9957 19.7992 13.8817 18.0792 14.1879 15.4536V20.2943H11.3213Z" fill="#54372B"/>
<path d="M12.7549 13.3168C12.9348 13.3168 13.0806 13.1709 13.0806 12.991C13.0806 12.8111 12.9348 12.6653 12.7549 12.6653C12.575 12.6653 12.4291 12.8111 12.4291 12.991C12.4291 13.1709 12.575 13.3168 12.7549 13.3168Z" fill="#54372B"/>
<path d="M18.3383 13.3234C18.5483 13.3234 18.7536 13.2611 18.9283 13.1444C19.1029 13.0277 19.239 12.8619 19.3194 12.6678C19.3998 12.4738 19.4208 12.2602 19.3798 12.0542C19.3388 11.8482 19.2377 11.659 19.0892 11.5105C18.9407 11.362 18.7514 11.2608 18.5454 11.2199C18.3394 11.1789 18.1259 11.1999 17.9319 11.2803C17.7378 11.3607 17.572 11.4968 17.4553 11.6714C17.3386 11.8461 17.2763 12.0514 17.2763 12.2614C17.2763 12.5431 17.3882 12.8132 17.5873 13.0123C17.7865 13.2115 18.0566 13.3234 18.3383 13.3234Z" fill="#54372B"/>
<path d="M18.3383 15.1604C18.1267 15.1591 17.9195 15.2207 17.7429 15.3373C17.5664 15.4539 17.4284 15.6203 17.3465 15.8155C17.2647 16.0106 17.2426 16.2256 17.283 16.4333C17.3235 16.641 17.4248 16.832 17.5739 16.9821C17.7231 17.1322 17.9135 17.2346 18.1209 17.2763C18.3284 17.3181 18.5435 17.2973 18.7391 17.2166C18.9348 17.136 19.102 16.999 19.2197 16.8232C19.3374 16.6473 19.4002 16.4405 19.4003 16.2289C19.4011 16.0889 19.3743 15.9501 19.3213 15.8205C19.2683 15.6909 19.1902 15.5731 19.0915 15.4737C18.9928 15.3744 18.8755 15.2957 18.7462 15.2419C18.6169 15.1881 18.4783 15.1604 18.3383 15.1604Z" fill="#54372B"/>
<path d="M18.3383 19.1282C18.1264 19.1269 17.9189 19.1886 17.7422 19.3055C17.5655 19.4225 17.4276 19.5892 17.3459 19.7848C17.2642 19.9803 17.2425 20.1956 17.2835 20.4035C17.3245 20.6114 17.4264 20.8023 17.5763 20.9522C17.7261 21.102 17.9171 21.2039 18.1249 21.2449C18.3328 21.2859 18.5482 21.2642 18.7437 21.1825C18.9392 21.1009 19.106 20.9629 19.2229 20.7862C19.3398 20.6095 19.4015 20.402 19.4002 20.1902C19.4002 19.9085 19.2883 19.6384 19.0892 19.4392C18.89 19.2401 18.6199 19.1282 18.3383 19.1282Z" fill="#54372B"/>
<path d="M32.6389 96.2083C32.6052 96.2865 32.5565 96.3574 32.4955 96.4168C32.5574 96.4769 32.6081 96.5475 32.6454 96.6253C32.6817 96.7051 32.7006 96.7917 32.7006 96.8794C32.7006 96.9671 32.6817 97.0537 32.6454 97.1335C32.5967 97.2259 32.5276 97.3061 32.4434 97.368C32.3578 97.4366 32.2608 97.4895 32.1567 97.5244C32.044 97.5649 31.9248 97.5848 31.8049 97.583H30.1892V96.697H29.9156V96.1432H30.2022V95.2506H31.7984C32.0336 95.2394 32.265 95.3134 32.4499 95.4591C32.5312 95.5185 32.5976 95.5958 32.6439 95.6851C32.6902 95.7744 32.7153 95.8732 32.717 95.9738C32.7079 96.0566 32.6813 96.1366 32.6389 96.2083ZM31.9352 95.8565C31.8929 95.8223 31.8399 95.8039 31.7854 95.8044H30.8798V96.1432H31.7854C31.8399 96.1438 31.8929 96.1253 31.9352 96.0911C31.9541 96.0779 31.9694 96.0603 31.98 96.0399C31.9906 96.0195 31.9962 95.9968 31.9962 95.9738C31.9962 95.9508 31.9906 95.9281 31.98 95.9077C31.9694 95.8873 31.9541 95.8698 31.9352 95.8565ZM31.9352 96.7426C31.8922 96.7102 31.8392 96.694 31.7854 96.697H30.8798V97.0293H31.7854C31.8399 97.0298 31.8929 97.0114 31.9352 96.9771C31.9541 96.9639 31.9694 96.9463 31.98 96.9259C31.9906 96.9055 31.9962 96.8829 31.9962 96.8599C31.9962 96.8369 31.9906 96.8142 31.98 96.7938C31.9694 96.7734 31.9541 96.7558 31.9352 96.7426Z" fill="#54372B"/>
<path d="M35.7792 96.5991C35.7024 96.7251 35.6003 96.8338 35.4795 96.9184C35.5651 97.0109 35.6354 97.1165 35.688 97.2311C35.7341 97.3427 35.7584 97.4621 35.7596 97.5829H35.069C35.0707 97.5 35.0481 97.4185 35.0039 97.3484C34.9567 97.2696 34.8921 97.2027 34.8149 97.1529H34.0136V97.5764H33.323V97.1529H32.8604V96.5991H33.323V95.244H34.6912C34.9976 95.2348 35.2975 95.334 35.5381 95.5241C35.6426 95.5987 35.7286 95.6961 35.7896 95.8091C35.8506 95.922 35.8849 96.0474 35.8899 96.1756C35.8893 96.3239 35.8512 96.4696 35.7792 96.5991ZM35.043 95.9476C34.9399 95.8697 34.8138 95.8284 34.6846 95.8303H34.0331V96.6317H34.6846C34.8138 96.6336 34.9399 96.5924 35.043 96.5144C35.0882 96.4818 35.1249 96.4387 35.1499 96.3887C35.1749 96.3388 35.1874 96.2836 35.1863 96.2278C35.1908 96.1694 35.1806 96.1108 35.1567 96.0573C35.1328 96.0039 35.096 95.9572 35.0495 95.9216L35.043 95.9476Z" fill="#54372B"/>
<path d="M38.0464 97.5829V97.1594H37.0821V97.5829H36.385V97.1594H36.0853V96.6056H36.385V96.1365C36.3867 96.0083 36.419 95.8823 36.479 95.7691C36.539 95.6558 36.6252 95.5584 36.7303 95.485C36.9656 95.3016 37.254 95.1993 37.5523 95.1934C37.8506 95.1875 38.1428 95.2784 38.3851 95.4524C38.4892 95.5269 38.5745 95.6245 38.6344 95.7376C38.6943 95.8506 38.7272 95.976 38.7304 96.1039V97.5503L38.0464 97.5829ZM38.0464 96.4883V96.1365C38.0456 96.0835 38.0329 96.0314 38.0093 95.984C37.9856 95.9367 37.9515 95.8953 37.9095 95.8629C37.8115 95.785 37.6895 95.7435 37.5642 95.7456C37.4389 95.7424 37.3165 95.784 37.2189 95.8629C37.1762 95.8949 37.1411 95.9361 37.1163 95.9835C37.0915 96.0308 37.0776 96.0831 37.0756 96.1365V96.6056H38.0464V96.4883Z" fill="#54372B"/>
<path d="M41.0498 97.5827V95.8041H40.2745C40.1171 95.8017 39.9634 95.8522 39.838 95.9474C39.7821 95.9861 39.7364 96.0377 39.7046 96.0978C39.6729 96.1579 39.6561 96.2248 39.6556 96.2927V97.5957H38.9585V95.2633H39.6882V95.3871C39.7823 95.3461 39.8806 95.3155 39.9814 95.2959C40.0887 95.2748 40.1977 95.2639 40.3071 95.2633H41.1215C41.2881 95.26 41.4511 95.3128 41.5841 95.4132C41.6417 95.4567 41.6886 95.5127 41.7214 95.5771C41.7541 95.6414 41.7718 95.7124 41.773 95.7846V97.5957L41.0498 97.5827Z" fill="#54372B"/>
<path d="M44.3921 97.4071C44.2612 97.5122 44.0974 97.5676 43.9295 97.5634H41.975V95.231H43.9295C44.0966 95.2244 44.2606 95.2775 44.3921 95.3809C44.4506 95.425 44.4981 95.4821 44.5308 95.5477C44.5636 95.6132 44.5808 95.6855 44.581 95.7587V97.0618C44.576 97.1295 44.5566 97.1953 44.524 97.2549C44.4914 97.3144 44.4464 97.3663 44.3921 97.4071ZM43.8904 95.7848H42.6721V97.0096H43.8904V95.7848Z" fill="#54372B"/>
</svg>
