<svg width="55" height="24" viewBox="0 0 55 24" fill="none" xmlns="http://www.w3.org/2000/svg">
<path d="M11.5 14C15.64 14 19 15.57 19 17.5V20H4V17.5C4 15.57 7.36 14 11.5 14ZM18 17.5C18 16.12 15.09 15 11.5 15C7.91 15 5 16.12 5 17.5V19H18V17.5ZM11.5 5C12.4283 5 13.3185 5.36875 13.9749 6.02513C14.6313 6.6815 15 7.57174 15 8.5C15 9.42826 14.6313 10.3185 13.9749 10.9749C13.3185 11.6313 12.4283 12 11.5 12C10.5717 12 9.6815 11.6313 9.02513 10.9749C8.36875 10.3185 8 9.42826 8 8.5C8 7.57174 8.36875 6.6815 9.02513 6.02513C9.6815 5.36875 10.5717 5 11.5 5ZM11.5 6C10.837 6 10.2011 6.26339 9.73223 6.73223C9.26339 7.20107 9 7.83696 9 8.5C9 9.16304 9.26339 9.79893 9.73223 10.2678C10.2011 10.7366 10.837 11 11.5 11C12.163 11 12.7989 10.7366 13.2678 10.2678C13.7366 9.79893 14 9.16304 14 8.5C14 7.83696 13.7366 7.20107 13.2678 6.73223C12.7989 6.26339 12.163 6 11.5 6Z" fill="#F8E4BE"/>
<path d="M50.6594 12.3656L51.8031 6.10313C51.8169 6.02229 51.8132 5.93944 51.7922 5.86018C51.7711 5.78092 51.7333 5.70711 51.6813 5.64375C51.6298 5.57879 51.5642 5.52644 51.4895 5.49069C51.4148 5.45495 51.3328 5.43675 51.25 5.4375H35.9688L35.4812 2.76563C35.4283 2.4635 35.2704 2.18974 35.0355 1.99253C34.8006 1.79532 34.5036 1.68731 34.1969 1.6875H32.5C32.3508 1.6875 32.2077 1.74676 32.1023 1.85225C31.9968 1.95774 31.9375 2.10082 31.9375 2.25C31.9375 2.39918 31.9968 2.54226 32.1023 2.64775C32.2077 2.75324 32.3508 2.8125 32.5 2.8125H34.1969C34.2391 2.81376 34.2797 2.82927 34.312 2.8565C34.3444 2.88372 34.3666 2.92108 34.375 2.9625L36.9719 17.2312C36.6507 17.4897 36.4004 17.8253 36.2442 18.2068C36.0881 18.5882 36.0312 19.003 36.0789 19.4125C36.1266 19.8219 36.2774 20.2125 36.5171 20.5478C36.7568 20.8832 37.0777 21.1522 37.4496 21.3298C37.8216 21.5074 38.2325 21.5878 38.644 21.5635C39.0554 21.5392 39.454 21.4109 39.8024 21.1906C40.1509 20.9704 40.4377 20.6654 40.6362 20.3041C40.8347 19.9429 40.9384 19.5372 40.9375 19.125C40.9394 18.6595 40.8058 18.2035 40.5531 17.8125H46.1969C45.9442 18.2035 45.8106 18.6595 45.8125 19.125C45.8125 19.6071 45.9555 20.0784 46.2233 20.4792C46.4911 20.88 46.8718 21.1925 47.3172 21.377C47.7626 21.5614 48.2527 21.6097 48.7255 21.5157C49.1984 21.4216 49.6327 21.1895 49.9736 20.8486C50.3145 20.5077 50.5466 20.0734 50.6407 19.6005C50.7347 19.1277 50.6864 18.6376 50.502 18.1922C50.3175 17.7468 50.005 17.3661 49.6042 17.0983C49.2034 16.8305 48.7321 16.6875 48.25 16.6875H38.0125L37.5344 14.0625H48.6344C49.1171 14.0614 49.5842 13.8909 49.9542 13.5809C50.3243 13.2708 50.5738 12.8407 50.6594 12.3656ZM39.8125 19.125C39.8125 19.3846 39.7355 19.6383 39.5913 19.8542C39.4471 20.07 39.2421 20.2383 39.0023 20.3376C38.7624 20.4369 38.4985 20.4629 38.2439 20.4123C37.9893 20.3616 37.7555 20.2366 37.5719 20.0531C37.3884 19.8695 37.2634 19.6357 37.2127 19.3811C37.1621 19.1265 37.1881 18.8626 37.2874 18.6227C37.3867 18.3829 37.555 18.1779 37.7708 18.0337C37.9867 17.8895 38.2404 17.8125 38.5 17.8125C38.8481 17.8125 39.1819 17.9508 39.4281 18.1969C39.6742 18.4431 39.8125 18.7769 39.8125 19.125ZM49.5625 19.125C49.5625 19.3846 49.4855 19.6383 49.3413 19.8542C49.1971 20.07 48.9921 20.2383 48.7523 20.3376C48.5124 20.4369 48.2485 20.4629 47.9939 20.4123C47.7393 20.3616 47.5055 20.2366 47.3219 20.0531C47.1384 19.8695 47.0134 19.6357 46.9627 19.3811C46.9121 19.1265 46.9381 18.8626 47.0374 18.6227C47.1367 18.3829 47.305 18.1779 47.5208 18.0337C47.7367 17.8895 47.9904 17.8125 48.25 17.8125C48.5981 17.8125 48.9319 17.9508 49.1781 18.1969C49.4242 18.4431 49.5625 18.7769 49.5625 19.125ZM36.175 6.5625H50.575L49.5531 12.1687C49.5137 12.384 49.4003 12.5786 49.2326 12.719C49.0648 12.8594 48.8532 12.9367 48.6344 12.9375H37.3375L36.175 6.5625Z" fill="#F8E4BE"/>
</svg>
