<svg width="103" height="55" viewBox="0 0 103 55" fill="none" xmlns="http://www.w3.org/2000/svg">
<path d="M101.516 40.0603H1.54367C1.34533 40.0664 1.15281 40.1288 0.988614 40.2402C0.824415 40.3517 0.69529 40.5075 0.61633 40.6895C0.537369 40.8716 0.51184 41.0723 0.54269 41.2684C0.57354 41.4644 0.659521 41.6476 0.790581 41.7966C3.65651 44.8194 10.5075 50.7186 20.5278 50.8755C20.7949 50.882 21.0494 50.9906 21.239 51.1788L23.9899 53.9297C24.1847 54.1229 24.4477 54.2319 24.7221 54.233H78.3379C78.6123 54.2319 78.8752 54.1229 79.07 53.9297L81.8209 51.1788C82.0106 50.9906 82.265 50.882 82.5322 50.8755C92.5524 50.7186 99.4035 44.8194 102.269 41.7966C102.4 41.6476 102.486 41.4644 102.517 41.2684C102.548 41.0723 102.523 40.8716 102.444 40.6895C102.365 40.5075 102.236 40.3517 102.071 40.2402C101.907 40.1288 101.715 40.0664 101.516 40.0603Z" fill="#F8E4BE"/>
<path d="M101.401 13.4719C100.784 8.94294 97.2174 5.86782 92.9395 4.80094C89.813 4.11348 86.5872 4.00359 83.4213 4.4767C83.4213 3.0019 83.4945 1.81997 83.4945 1.04596C83.4945 0.768552 83.3843 0.502508 83.1881 0.306353C82.992 0.110198 82.7259 0 82.4485 0H20.5906C20.3132 0 20.0471 0.110198 19.851 0.306353C19.6548 0.502508 19.5446 0.768552 19.5446 1.04596C19.5446 7.21711 20.4023 39.1293 36.3845 40.0602H66.7068C69.6403 39.8735 72.3911 38.5711 74.3946 36.4203C78.2969 36.208 82.1379 35.3564 85.7642 33.8995C90.1093 32.1194 93.9726 29.3384 97.0396 25.7829C99.8428 22.4462 102.018 17.9486 101.401 13.4719ZM94.5293 21.0551C92.3022 24.6405 89.1472 27.5571 85.3981 29.496C82.8511 30.8596 80.121 31.8495 77.2919 32.4352C80.0428 27.6133 81.5908 21.2434 82.4381 15.407C84.1508 14.8531 85.6852 13.8531 86.8834 12.5097C87.6833 11.5707 88.7666 10.9172 89.9702 10.6474C91.1738 10.3776 92.4325 10.5063 93.5566 11.0139C97.6149 13.0431 96.3493 17.9068 94.5293 21.0551Z" fill="#F8E4BE"/>
<path d="M77.658 33.4183C83.2931 32.154 88.4411 29.2839 92.4793 25.1552C94.7432 22.8739 96.298 19.9858 96.956 16.8399C97.4685 13.702 96.0564 10.7733 92.9081 9.87377C91.2322 9.42987 89.4491 9.65885 87.9398 10.5118C86.8166 11.2393 85.7658 12.0729 84.8019 13.0012C86.58 11.244 88.0758 9.53907 90.7534 9.30896C92.3034 9.15903 93.8522 9.6057 95.0843 10.558C96.3164 11.5102 97.1391 12.8964 97.3848 14.4341C97.8764 17.7289 96.161 21.1283 94.2469 23.6804C92.153 26.36 89.5378 28.5874 86.5591 30.2281C83.7973 31.7948 80.7863 32.874 77.658 33.4183Z" fill="#54372B"/>
<path d="M22.5779 50.5405L31.6254 50.4673L51.4986 50.4045L71.3718 50.4673L80.4194 50.5405L71.3718 50.6137H51.4986H31.6254L22.5779 50.5405Z" fill="#54372B"/>
<path d="M2.64194 42.1208L51.53 41.9849L100.418 42.1208L51.53 42.2464L2.64194 42.1208Z" fill="#54372B"/>
<path d="M32.3367 35.3323C28.3516 31.2531 26.7199 25.2388 25.4334 19.8417C24.288 14.9077 23.5879 9.88089 23.3415 4.82173L26.4793 4.67529C26.8454 15.0721 27.7554 25.7827 32.3367 35.3323Z" fill="#54372B"/>
</svg>
